<svg xmlns="http://www.w3.org/2000/svg" xmlns:xlink="http://www.w3.org/1999/xlink" version="1.1" class="marks" width="600" height="300" viewBox="0 0 600 300"><rect width="600" height="300" fill="white"/><g fill="none" stroke-miterlimit="10" transform="translate(33,27)"><g class="mark-group role-frame root" role="graphics-object" aria-roledescription="group mark container"><g transform="translate(0,0)"><path class="background" aria-hidden="true" d="M0.5,0.5h418v236h-418Z" stroke="#ddd"/><g><g class="mark-group role-axis" aria-hidden="true"><g transform="translate(0.5,236.5)"><path class="background" aria-hidden="true" d="M0,0h0v0h0Z" pointer-events="none"/><g><g class="mark-rule role-axis-grid" pointer-events="none"><line transform="translate(0,-236)" x2="0" y2="236" stroke="#ddd" stroke-width="1" opacity="1"/><line transform="translate(42,-236)" x2="0" y2="236" stroke="#ddd" stroke-width="1" opacity="1"/><line transform="translate(84,-236)" x2="0" y2="236" stroke="#ddd" stroke-width="1" opacity="1"/><line transform="translate(125,-236)" x2="0" y2="236" stroke="#ddd" stroke-width="1" opacity="1"/><line transform="translate(167,-236)" x2="0" y2="236" stroke="#ddd" stroke-width="1" opacity="1"/><line transform="translate(209,-236)" x2="0" y2="236" stroke="#ddd" stroke-width="1" opacity="1"/><line transform="translate(251,-236)" x2="0" y2="236" stroke="#ddd" stroke-width="1" opacity="1"/><line transform="translate(293,-236)" x2="0" y2="236" stroke="#ddd" stroke-width="1" opacity="1"/><line transform="translate(334,-236)" x2="0" y2="236" stroke="#ddd" stroke-width="1" opacity="1"/><line transform="translate(376,-236)" x2="0" y2="236" stroke="#ddd" stroke-width="1" opacity="1"/><line transform="translate(418,-236)" x2="0" y2="236" stroke="#ddd" stroke-width="1" opacity="1"/></g></g><path class="foreground" aria-hidden="true" d="" pointer-events="none" display="none"/></g></g><g class="mark-group role-axis" aria-hidden="true"><g transform="translate(0.5,0.5)"><path class="background" aria-hidden="true" d="M0,0h0v0h0Z" pointer-events="none"/><g><g class="mark-rule role-axis-grid" pointer-events="none"><line transform="translate(0,236)" x2="418" y2="0" stroke="#ddd" stroke-width="1" opacity="1"/><line transform="translate(0,184)" x2="418" y2="0" stroke="#ddd" stroke-width="1" opacity="1"/><line transform="translate(0,131)" x2="418" y2="0" stroke="#ddd" stroke-width="1" opacity="1"/><line transform="translate(0,79)" x2="418" y2="0" stroke="#ddd" stroke-width="1" opacity="1"/><line transform="translate(0,26)" x2="418" y2="0" stroke="#ddd" stroke-width="1" opacity="1"/></g></g><path class="foreground" aria-hidden="true" d="" pointer-events="none" display="none"/></g></g><g class="mark-group role-axis" role="graphics-symbol" aria-roledescription="axis" aria-label="X-axis titled 'epoch' for a linear scale with values from 0 to 500"><g transform="translate(0.5,236.5)"><path class="background" aria-hidden="true" d="M0,0h0v0h0Z" pointer-events="none"/><g><g class="mark-rule role-axis-tick" pointer-events="none"><line transform="translate(0,0)" x2="0" y2="5" stroke="#888" stroke-width="1" opacity="1"/><line transform="translate(42,0)" x2="0" y2="5" stroke="#888" stroke-width="1" opacity="1"/><line transform="translate(84,0)" x2="0" y2="5" stroke="#888" stroke-width="1" opacity="1"/><line transform="translate(125,0)" x2="0" y2="5" stroke="#888" stroke-width="1" opacity="1"/><line transform="translate(167,0)" x2="0" y2="5" stroke="#888" stroke-width="1" opacity="1"/><line transform="translate(209,0)" x2="0" y2="5" stroke="#888" stroke-width="1" opacity="1"/><line transform="translate(251,0)" x2="0" y2="5" stroke="#888" stroke-width="1" opacity="1"/><line transform="translate(293,0)" x2="0" y2="5" stroke="#888" stroke-width="1" opacity="1"/><line transform="translate(334,0)" x2="0" y2="5" stroke="#888" stroke-width="1" opacity="1"/><line transform="translate(376,0)" x2="0" y2="5" stroke="#888" stroke-width="1" opacity="1"/><line transform="translate(418,0)" x2="0" y2="5" stroke="#888" stroke-width="1" opacity="1"/></g><g class="mark-text role-axis-label" pointer-events="none"><text text-anchor="start" transform="translate(0,15)" font-family="sans-serif" font-size="10px" fill="#000" opacity="1">0</text><text text-anchor="middle" transform="translate(41.800000000000004,15)" font-family="sans-serif" font-size="10px" fill="#000" opacity="1">50</text><text text-anchor="middle" transform="translate(83.60000000000001,15)" font-family="sans-serif" font-size="10px" fill="#000" opacity="1">100</text><text text-anchor="middle" transform="translate(125.39999999999999,15)" font-family="sans-serif" font-size="10px" fill="#000" opacity="1">150</text><text text-anchor="middle" transform="translate(167.20000000000002,15)" font-family="sans-serif" font-size="10px" fill="#000" opacity="1">200</text><text text-anchor="middle" transform="translate(209,15)" font-family="sans-serif" font-size="10px" fill="#000" opacity="1">250</text><text text-anchor="middle" transform="translate(250.79999999999998,15)" font-family="sans-serif" font-size="10px" fill="#000" opacity="1">300</text><text text-anchor="middle" transform="translate(292.59999999999997,15)" font-family="sans-serif" font-size="10px" fill="#000" opacity="1">350</text><text text-anchor="middle" transform="translate(334.40000000000003,15)" font-family="sans-serif" font-size="10px" fill="#000" opacity="1">400</text><text text-anchor="middle" transform="translate(376.2,15)" font-family="sans-serif" font-size="10px" fill="#000" opacity="1">450</text><text text-anchor="end" transform="translate(418,15)" font-family="sans-serif" font-size="10px" fill="#000" opacity="1">500</text></g><g class="mark-rule role-axis-domain" pointer-events="none"><line transform="translate(0,0)" x2="418" y2="0" stroke="#888" stroke-width="1" opacity="1"/></g><g class="mark-text role-axis-title" pointer-events="none"><text text-anchor="middle" transform="translate(209,30)" font-family="sans-serif" font-size="11px" font-weight="bold" fill="#000" opacity="1">epoch</text></g></g><path class="foreground" aria-hidden="true" d="" pointer-events="none" display="none"/></g></g><g class="mark-group role-axis" role="graphics-symbol" aria-roledescription="axis" aria-label="Y-axis titled 'y' for a linear scale with values from 0 to 9"><g transform="translate(0.5,0.5)"><path class="background" aria-hidden="true" d="M0,0h0v0h0Z" pointer-events="none"/><g><g class="mark-rule role-axis-tick" pointer-events="none"><line transform="translate(0,236)" x2="-5" y2="0" stroke="#888" stroke-width="1" opacity="1"/><line transform="translate(0,184)" x2="-5" y2="0" stroke="#888" stroke-width="1" opacity="1"/><line transform="translate(0,131)" x2="-5" y2="0" stroke="#888" stroke-width="1" opacity="1"/><line transform="translate(0,79)" x2="-5" y2="0" stroke="#888" stroke-width="1" opacity="1"/><line transform="translate(0,26)" x2="-5" y2="0" stroke="#888" stroke-width="1" opacity="1"/></g><g class="mark-text role-axis-label" pointer-events="none"><text text-anchor="end" transform="translate(-7,239)" font-family="sans-serif" font-size="10px" fill="#000" opacity="1">0</text><text text-anchor="end" transform="translate(-7,186.55555555555557)" font-family="sans-serif" font-size="10px" fill="#000" opacity="1">2</text><text text-anchor="end" transform="translate(-7,134.11111111111111)" font-family="sans-serif" font-size="10px" fill="#000" opacity="1">4</text><text text-anchor="end" transform="translate(-7,81.66666666666667)" font-family="sans-serif" font-size="10px" fill="#000" opacity="1">6</text><text text-anchor="end" transform="translate(-7,29.222222222222236)" font-family="sans-serif" font-size="10px" fill="#000" opacity="1">8</text></g><g class="mark-rule role-axis-domain" pointer-events="none"><line transform="translate(0,236)" x2="0" y2="-236" stroke="#888" stroke-width="1" opacity="1"/></g><g class="mark-text role-axis-title" pointer-events="none"><text text-anchor="middle" transform="translate(-16.5615234375,118) rotate(-90) translate(0,-2)" font-family="sans-serif" font-size="11px" font-weight="bold" fill="#000" opacity="1">y</text></g></g><path class="foreground" aria-hidden="true" d="" pointer-events="none" display="none"/></g></g><g class="mark-group role-scope layer_0_pathgroup" role="graphics-object" aria-roledescription="group mark container"><g transform="translate(0,0)"><path class="background" aria-hidden="true" d="M0,0h418v236h-418Z"/><g><g class="mark-line role-mark layer_0_marks" clip-path="url(#clip5)" role="graphics-object" aria-roledescription="line mark container"><path aria-label="epoch: 0; y: 8.23597023704; name: overfit run (11 examples); lineKey: train_loss_avg" role="graphics-symbol" aria-roledescription="line mark" d="M0,20.034558228772113L0.836,21.099687325834015L1.672,21.527173938173256L2.508,22.450442535708653L3.344,22.39631502556079L4.18,23.31984051791103L5.016,23.554278633811265L5.852,24.227357825847584L6.688,24.504381372471048L7.523999999999999,24.845726379240425L8.36,25.226155772353653L9.196,25.38883498220733L10.032,26.132166949185443L10.868,26.469197032427566L11.704,26.83235877451271L12.54,27.274753243032137L13.376,27.547964288730814L14.212000000000002,27.771577584623103L15.047999999999998,28.742136425442173L15.884,28.606852887856835L16.72,29.27980363248574L17.556,29.761267710213716L18.392,29.98421035150087L19.227999999999998,30.415842518661947L20.064,30.80140639796403L20.900000000000002,31.096667203036237L21.736,31.423141864815143L22.572,31.730989379112156L23.408,32.35051736927994L24.244,33.217448706578715L25.08,33.786919719041016L25.916,34.104043864240566L26.752,34.87116701916011L27.588,35.355372823850075L28.424000000000003,36.07536601056956L29.26,36.647141119446395L30.095999999999997,37.437705357869454L30.932,38.122209548950195L31.768,38.71537967643352L32.604,40.36662225048953L33.44,40.58031554173941L34.276,41.20368672380544L35.112,42.68132637486312L35.948,42.85284458507191L36.784,44.421871724754865L37.62,45.99419984913834L38.455999999999996,46.91199976988514L39.292,48.92575730217829L40.128,49.41489980678365L40.964,51.53488789182721L41.800000000000004,52.752007783061316L42.635999999999996,53.86425548129611L43.472,55.322616654213036L44.308,56.940883482345434L45.144,58.106494826499855L45.98,60.77229573028256L46.816,61.70447153033631L47.652,63.114284130057904L48.488,63.83858996689921L49.324,66.68013875171391L50.16,67.1945626615274L50.996,69.07431544679584L51.832,71.43827744686243L52.668,74.17327512875951L53.504,74.95680317734228L54.34,76.39614504033868L55.176,78.42386923895941L56.012,80.94366067828554L56.848000000000006,82.49430960838241L57.684000000000005,83.12988329415371L58.52,84.84956560231217L59.355999999999995,87.68177296416928L60.19199999999999,90.27730972598296L61.028,90.10709190368652L61.864,92.64407710836392L62.699999999999996,93.99315795513114L63.536,95.82936820598563L64.372,97.00845970770324L65.208,98.4333654461485L66.044,101.0223968582924L66.88,102.03267322887073L67.71600000000001,103.69517711677938L68.552,106.1581084126174L69.388,106.77057463713368L70.224,106.95625218478115L71.06,108.7032983375318L71.896,109.81087418758509L72.732,111.70791451617924L73.568,112.1809033384227L74.404,113.43398395692459L75.24,114.97837647524746L76.076,115.74546098227451L76.91199999999999,116.79970274067887L77.748,117.65317551776616L78.584,116.67794767052237L79.42,120.7949473833797L80.256,120.8225868783816L81.092,122.42928946138633L81.928,122.69745013689753L82.76400000000001,123.45544613732233L83.60000000000001,125.83964883438264L84.436,124.68482650410046L85.27199999999999,127.25029520554975L86.10799999999999,129.27176242404514L86.944,128.33138417715978L87.78,131.208262250881L88.616,130.89869945217865L89.452,130.620505101753L90.288,132.1540273319591L91.124,134.80338412583478L91.96,133.85207307218303L92.796,135.38802102599482L93.632,136.84323239567306L94.468,137.6074245626276L95.304,138.3939358875005L96.14,138.02828249305185L96.976,138.90486386809687L97.81200000000001,139.67029560936822L98.648,140.30246771224822L99.484,140.0610604719682L100.32,142.70188744862875L101.15599999999999,141.6956679700601L101.992,143.40412874896117L102.828,144.6700774106112L103.664,143.0660693814056L104.5,145.88321543221522L105.336,146.92800607584942L106.172,147.0736409967596L107.008,145.3802915438257L107.84400000000001,145.23652536218816L108.68,148.39376547842315L109.516,149.1966089479851L110.352,147.17987836972634L111.188,149.07874083278153L112.024,151.23484594171697L112.86000000000001,149.88750481846358L113.69600000000001,151.0132417678833L114.53200000000001,152.2785760417129L115.36800000000001,151.49763001335992L116.20400000000001,152.02787966680046L117.04,152.60694899703518L117.87599999999999,154.02282874752777L118.71199999999999,155.5965112532028L119.54799999999999,153.9248103035821L120.38399999999999,155.02808202878396L121.21999999999998,155.29867808987396L122.056,156.38294471393934L122.892,152.98277644918423L123.728,155.37340833683206L124.564,158.06930799195263L125.39999999999999,157.62806841339727L126.23599999999999,158.19487499468252L127.072,157.0015786874174L127.908,158.46010525058014L128.744,160.4727851886942L129.58,157.82826961170545L130.416,159.1864412384804L131.252,159.8943961750377L132.088,160.23894327337092L132.924,159.94798034128513L133.76,160.27253397546633L134.596,160.89348795919707L135.43200000000002,163.54819919123793L136.268,163.34421675132984L137.104,162.09404325003575L137.94,164.43243569075457L138.776,162.73346012770526L139.612,163.14599625751225L140.448,162.50376774566342L141.28400000000002,162.74730687189583L142.12,161.67803904022833L142.95600000000002,164.68438698547055L143.792,166.2980984774503L144.628,166.4460079405043L145.464,163.58284475345803L146.29999999999998,165.9911108787614L147.136,167.72436655410613L147.97199999999998,167.45619394321633L148.808,165.20278139788695L149.644,168.1354113299437L150.48,167.98311874119923L151.316,168.10422986926454L152.152,168.3815512320008L152.988,169.9799001867121L153.82399999999998,169.80250295003256L154.66,168.76391813490127L155.496,169.7686093166621L156.332,169.20751637160174L157.168,169.4559995863173L158.004,170.4423486488034L158.84,170.46046570093944L159.67600000000002,168.2313018663965L160.512,171.18532397530296L161.348,172.22908703967778L162.184,170.30045887918183L163.02,169.60452173213767L163.856,171.28825865851508L164.692,172.4888051399077L165.52800000000002,171.9896070788605L166.364,172.64883952670627L167.20000000000002,170.67281768297906L168.036,173.9492925152634L168.872,174.6250054475033L169.708,174.57438466524835L170.54399999999998,175.32659939563635L171.38,174.8341306146949L172.21599999999998,173.28946017255686L173.052,172.78078058994177L173.888,174.96769801534788L174.724,174.65178531107273L175.56,173.15355997374562L176.396,174.7227399999445L177.232,173.73226044394752L178.06799999999998,175.18031626999982L178.904,175.15417608588632L179.74,174.16445243719852L180.576,177.0380829512471L181.412,174.7969337232185L182.248,177.0751067797343L183.084,178.24551586189656L183.92,177.68206283781265L184.756,176.67510961763784L185.592,176.66929310981672L186.428,177.91350858380096L187.264,178.95425199739861L188.1,176.64928174259688L188.936,174.90019691351688L189.77200000000002,176.96861904799334L190.608,176.55226132363984L191.44400000000002,178.72874637565226L192.28,177.25935236612958L193.116,178.3283550618875L193.952,179.77491555551086L194.788,178.7984092018821L195.62400000000002,177.76650649369367L196.45999999999998,179.55941433858388L197.296,179.59574932522244L198.13199999999998,179.65949987642693L198.968,179.0631833558131L199.804,178.44551245371503L200.64,179.13413946556324L201.476,180.27021671545626L202.31199999999998,177.43871496181296L203.148,180.19740465433912L203.984,181.15972410548815L204.82,180.79579764664777L205.656,180.73513210662688L206.492,180.63685818874475L207.328,181.48229675100308L208.164,181.0225695552248L209,182.3840447242814L209.836,181.12517772058044L210.672,182.73251032106805L211.508,180.34369346348925L212.344,183.18393305094557L213.18,182.35059383662062L214.016,182.51634953238747L214.852,180.87486810876865L215.68800000000002,183.4466688127229L216.524,183.01807647281223L217.36,181.63895115226205L218.196,183.5985214975145L219.032,183.42637241729582L219.86800000000002,183.77421680604567L220.704,180.99380444035387L221.54000000000002,183.11862720624364L222.376,183.42425417177606L223.21200000000002,185.20546591402305L224.048,184.6781469643718L224.88400000000001,181.79275044046267L225.72000000000003,179.80418479803836L226.556,181.27841320423164L227.39200000000002,182.7742597069403L228.228,181.71800200626103L229.06400000000002,180.88458890625927L229.9,182.93336768102162L230.73600000000002,182.02546332580874L231.57200000000003,181.4004797309336L232.40800000000002,183.65697813997366L233.24400000000003,185.3470095576662L234.08,185.45213040438563L234.91600000000003,184.53127303749625L235.75199999999998,184.1584461963538L236.58799999999997,185.047235474442L237.42399999999998,184.97029490904376L238.26,184.2263704357725L239.09599999999998,183.81020992934103L239.932,185.5085406977721L240.76799999999997,186.29801625916454L241.60399999999998,182.60491203057646L242.43999999999997,185.56010039647418L243.27599999999998,183.47584427727594L244.112,185.45615745794893L244.94799999999998,185.76430250418306L245.784,186.6498342764498L246.61999999999998,185.35053134687018L247.456,186.27715321743128L248.292,187.5678672212543L249.128,186.53279652258362L249.964,185.6152145645835L250.79999999999998,186.39657207932134L251.636,187.7329400428618L252.47199999999998,187.44052980403708L253.308,186.18195180700283L254.144,187.64006006356442L254.98,187.75503384946572L255.816,187.596120819901L256.652,186.811223897067L257.488,187.24805193236378L258.324,187.35127391718854L259.16,190.5618441466129L259.996,188.00939495394928L260.832,188.62130760424066L261.668,188.46962911914093L262.504,187.57374738442778L263.34,189.02028059718583L264.176,189.11231174372662L265.012,190.90755380765356L265.848,188.23550700659703L266.684,190.96318489132506L267.52,189.3138019629199L268.356,188.9775795069608L269.192,188.51459338448265L270.028,188.93318444550638L270.86400000000003,188.19604210901744L271.7,188.76615592686815L272.536,189.57682928894505L273.372,190.27716007617988L274.208,190.37868922647803L275.04400000000004,187.59242312595097L275.88,189.84119224066686L276.716,189.06423007117377L277.552,190.49257518787576L278.38800000000003,187.055745986977L279.224,187.77636237096303L280.06,188.8816957907243L280.896,189.7679479483402L281.732,191.2509852322665L282.56800000000004,190.4202158186171L283.404,191.25493101158528L284.24,191.7653901023094L285.076,193.13339193421183L285.91200000000003,193.60064467035158L286.74800000000005,192.3483554811189L287.584,190.01685174306232L288.41999999999996,190.87200826105445L289.256,191.83527572227246L290.092,191.5095316761672L290.928,193.2173709628558L291.76399999999995,191.88686469106963L292.59999999999997,194.13821895194775L293.436,194.856702029103L294.272,191.990915048002L295.108,193.7339665432169L295.94399999999996,194.84559644352308L296.78,194.37072126311483L297.616,191.78349095643168L298.452,192.0302770739854L299.288,194.19438911688448L300.12399999999997,191.800060103638L300.96,193.94032838609482L301.796,194.48640747744628L302.632,193.6989347862475L303.468,193.8736795271286L304.304,191.8074395776999L305.14,192.97161270873715L305.976,194.13996350644814L306.812,193.15370424347697L307.64799999999997,196.36362285806675L308.484,194.45990354846222L309.32,195.694175999574L310.156,194.4497178395589L310.992,193.8647515797856L311.828,195.72309286425812L312.664,194.7506183951792L313.5,194.49352636240948L314.336,196.69969754267223L315.172,193.17650678422714L316.008,195.88872863788797L316.844,196.02119315272628L317.68,191.8266794079482L318.516,194.66934954999672L319.35200000000003,193.59900241909605L320.188,195.55162012215817L321.024,196.8696746681676L321.86,198.85412487839207L322.696,197.21936534631132L323.532,194.22083621073253L324.368,193.79115206785877L325.204,194.8290005838028L326.04,193.10803550662416L326.87600000000003,194.03747213729704L327.712,195.4268090267374L328.548,195.07647753243495L329.384,195.14196553374782L330.22,194.51397223424428L331.05600000000004,194.36673740425496L331.892,196.68081605795658L332.728,193.20818754157634L333.564,196.1667786270681L334.40000000000003,194.0074933080962L335.23600000000005,196.26559134203978L336.072,196.17016543282404L336.908,193.55815244925142L337.744,194.2392902952252L338.58000000000004,194.2837140584233L339.416,196.09712233687893L340.25199999999995,193.39274771044953L341.08799999999997,196.59434310354368L341.924,194.5856828304252L342.76,197.55701692176586L343.596,196.91688477390946L344.43199999999996,195.91675432763918L345.268,197.02200732568298L346.104,195.39054849412705L346.94,197.7100482251909L347.776,195.28155433288728L348.61199999999997,195.4131200000493L349.448,195.30438415450277L350.284,196.0688664648268L351.12,195.28136052507344L351.95599999999996,198.40031109434184L352.792,196.27284094781587L353.628,195.9059184247797L354.464,196.61196711087467L355.3,196.64484481618862L356.13599999999997,198.50145149230957L356.972,196.3167074425052L357.808,195.39895895755652L358.644,195.33053741069756L359.48,196.98191752578273L360.316,195.29556561479666L361.152,195.6919328588428L361.988,193.8958193701927L362.824,193.4459090232849L363.66,192.58271289112594L364.496,194.94572375519107L365.332,194.59488529147524L366.168,197.04127585767495L367.004,199.5330381971417L367.84,197.56305508661754L368.676,198.58735069602426L369.512,199.4149575185294L370.348,195.9507113321863L371.184,196.4589183306453L372.02,195.91291880848433L372.856,196.48517474261195L373.692,195.23396883107196L374.528,197.11675206579343L375.36400000000003,196.19798793696393L376.2,198.0484240223663L377.036,196.86504345710833L377.872,196.7711566433762L378.708,196.87934005140053L379.54400000000004,197.23162752690942L380.38,194.6234898470869L381.216,196.40495592656762L382.052,195.85381452965015L382.88800000000003,194.85828375093865L383.724,193.75224102867975L384.56,196.9246774394103L385.396,196.01983109869138L386.232,195.49794842980126L387.06800000000004,195.28945384844386L387.904,194.9016847658639L388.74,194.66189249597414L389.576,196.26544300233473L390.41200000000003,196.33277729304152L391.24800000000005,197.82132929021662L392.084,198.1140504172354L392.91999999999996,197.4596293478301L393.756,198.1579745995878L394.592,196.8775236004531L395.428,198.60223638650143L396.26399999999995,196.737521325699L397.09999999999997,196.8995017475552L397.936,194.65387590003735L398.772,194.3248663911916L399.608,197.9852942529351L400.44399999999996,195.60723699704565L401.28,197.78983608881634L402.116,196.39746192970662L402.952,195.71750312862974L403.788,197.40003713935312L404.62399999999997,198.68303605763597L405.46,193.1591808771846L406.296,193.47818797044079L407.132,196.2776185093504L407.968,198.4853665804622L408.804,196.29237305275117L409.64,198.00966501717616L410.476,197.62370755455711L411.312,199.79817453297704L412.14799999999997,197.73960349054047L412.984,197.8448303347886L413.82,198.88324691791726L414.656,199.87753158627135L415.492,199.35861343807645L416.328,198.31520360407202L417.164,198.47086935813982" stroke="rgb(232, 123, 159)" stroke-width="2" stroke-dasharray="1,0"/></g></g><path class="foreground" aria-hidden="true" d="" display="none"/></g><g transform="translate(0,0)"><path class="background" aria-hidden="true" d="M0,0h418v236h-418Z"/><g><g class="mark-line role-mark layer_0_marks" clip-path="url(#clip6)" role="graphics-object" aria-roledescription="line mark container"><path aria-label="epoch: 0; y: 8.15949980418; name: overfit run (11 examples); lineKey: valid_loss_avg" role="graphics-symbol" aria-roledescription="line mark" d="M0,22.039782912642885L0.836,21.915808430424452L1.672,22.762844438906047L2.508,22.990408155653213L3.344,23.060462386519838L4.18,23.41219230934427L5.016,23.957084019978833L5.852,24.087902210376857L6.688,24.373374868322273L7.523999999999999,24.585429792050984L8.36,24.747023829707384L9.196,25.047109180026577L10.032,25.453326189959505L10.868,25.579690968548796L11.704,25.805091540018726L12.54,26.090314123365616L13.376,26.382126172383618L14.212000000000002,26.629151944760917L15.047999999999998,26.651519033643936L15.884,26.85911220974393L16.72,27.417589222943356L17.556,27.60736041598849L18.392,27.647832905804684L19.227999999999998,28.041033532884384L20.064,28.291556181731057L20.900000000000002,28.336552937825513L21.736,28.789042084305382L22.572,28.868657500655555L23.408,29.444981504369665L24.244,29.566861611825466L25.08,29.99104648166232L25.916,30.41326201403582L26.752,30.68055424866853L27.588,30.80510181850858L28.424000000000003,31.010915297049046L29.26,31.490391660619665L30.095999999999997,31.732949433503318L30.932,32.41827261889422L31.768,33.15060566089773L32.604,33.157649428756145L33.44,33.632962050261334L34.276,34.10284388506854L35.112,35.12873116245976L35.948,35.41392248648183L36.784,35.74013229652686L37.62,36.76046166596589L38.455999999999996,37.414433832521794L39.292,37.89898462648745L40.128,39.04624561027246L40.964,39.64035616980657L41.800000000000004,40.51969973246258L42.635999999999996,41.713255776299384L43.472,41.95401301207366L44.308,43.24482515123155L45.144,45.48649385240343L45.98,45.38455719417996L46.816,46.49932723575168L47.652,47.14362151534469L48.488,48.04504874900537L49.324,50.1435122313323L50.16,50.8528134028117L50.996,52.312698894076874L51.832,53.76487583584256L52.668,56.204564023900915L53.504,56.30140749613445L54.34,58.27247464215314L55.176,57.55900347674334L56.012,61.605498066654896L56.848000000000006,61.65043855596473L57.684000000000005,64.36201409940367L58.52,65.13934181354666L59.355999999999995,62.67168486559832L60.19199999999999,67.23220987673159L61.028,67.27487468719482L61.864,68.43563344743517L62.699999999999996,68.95405684577094L63.536,72.53797386310721L64.372,71.14666507862235L65.208,71.64833556281195L66.044,74.81389028054697L66.88,75.95275500968651L67.71600000000001,74.60116015540228L68.552,74.95767067096854L69.388,77.66969218077483L70.224,80.26753171284993L71.06,80.33469341419364L71.896,80.65766267423277L72.732,81.23838590692588L73.568,82.46150910412824L74.404,81.54888894822862L75.24,85.62550919144242L76.076,84.98766266858136L76.91199999999999,86.81428881044741L77.748,84.83471079225893L78.584,85.78611751838966L79.42,89.0870334483959L80.256,85.76327737172444L81.092,86.77205121075666L81.928,88.59150021164506L82.76400000000001,91.8375268512302L83.60000000000001,90.04044910713478L84.436,90.25619679910166L85.27199999999999,92.62128565046523L86.10799999999999,91.31864289884214L86.944,93.68183118325693L87.78,94.75971313759132L88.616,94.93931046238652L89.452,94.28661159232811L90.288,93.71485353399208L91.124,97.36361697868065L91.96,93.98081203743263L92.796,97.6762810813056L93.632,95.07653889832673L94.468,98.38693473957206L95.304,95.87962429611771L96.14,99.4320339979949L96.976,96.68749653851545L97.81200000000001,99.66505559285481L98.648,97.10268080676043L99.484,95.27922852834065L100.32,97.17446472026681L101.15599999999999,97.04080609922056L101.992,99.13299479307952L102.828,100.6978282575254L103.664,98.88024856426095L104.5,97.83296532101102L105.336,96.95359258298521L106.172,101.00949831362124L107.008,102.36067429295292L107.84400000000001,97.21805480674462L108.68,102.48770385318332L109.516,97.53642269417091L110.352,103.03595489925809L111.188,101.65809804421885L112.024,105.25793439370615L112.86000000000001,102.15955179708975L113.69600000000001,99.35115570492215L114.53200000000001,104.3638072543674L115.36800000000001,105.41400178273518L116.20400000000001,102.7338522805108L117.04,102.05092981126573L117.87599999999999,101.93053764767117L118.71199999999999,99.63894155290392L119.54799999999999,102.71874985871492L120.38399999999999,102.63589806026883L121.21999999999998,101.93891306276674L122.056,101.25211235328956L122.892,106.45805906366417L123.728,102.75745723865653L124.564,98.99297385745578L125.39999999999999,106.40051064667878L126.23599999999999,99.29978204656533L127.072,101.98554363957157L127.908,99.87477440304227L128.744,99.59229847236915L129.58,106.73024442460802L130.416,105.59156725141737L131.252,102.74743341516563L132.088,105.53738025382714L132.924,102.02348829198769L133.76,105.55757377765799L134.596,102.05486848619249L135.43200000000002,105.60276642552128L136.268,104.87601629892985L137.104,100.58879364861383L137.94,104.2336475937455L138.776,105.46999348534479L139.612,101.01611695466218L140.448,100.10305500030518L141.28400000000002,104.24013911353217L142.12,103.44087985709862L142.95600000000002,103.34993606143527L143.792,103.30254067314996L144.628,103.60925091637506L145.464,104.76484355220089L146.29999999999998,98.64187954090262L147.136,99.72753464734113L147.97199999999998,102.12280750274658L148.808,97.95481833705196L149.644,102.66685104370117L150.48,102.4259375113028L151.316,102.72951140227141L152.152,101.27848480365897L152.988,101.81150630668358L153.82399999999998,97.0879618326823L154.66,100.6954921439842L155.496,96.36944958015724L156.332,101.34414397345648L157.168,96.80848054532652L158.004,96.6233628237689L158.84,99.85547281194619L159.67600000000002,95.6012454209504L160.512,100.98589127152054L161.348,99.3050398649993L162.184,98.92787735550492L163.02,100.29002952575684L163.856,98.84137446792037L164.692,91.65860889576102L165.52800000000002,97.10933279108116L166.364,98.83981775354454L167.20000000000002,92.59471939228202L168.036,97.91758431328668L168.872,92.36783296090586L169.708,95.0123510007505L170.54399999999998,98.27127523775454L171.38,93.92929458618164L172.21599999999998,93.83990333698416L173.052,97.38495459379973L173.888,92.37065880386918L174.724,95.72896060237179L175.56,98.59820818018028L176.396,96.07848361686425L177.232,91.86723571353488L178.06799999999998,91.5038043834545L178.904,97.01269354643645L179.74,90.3716604091503L180.576,90.46170602021394L181.412,94.66537666320801L182.248,89.28926877622251L183.084,93.14181175938359L183.92,93.28036142278603L184.756,93.16106541951497L185.592,86.62948576609294L186.428,87.20769158116093L187.264,86.19984093418827L188.1,91.75205552136457L188.936,91.73798674124258L189.77200000000002,86.55281497814035L190.608,85.31053815064607L191.44400000000002,90.29547309875488L192.28,84.44634910866066L193.116,82.97211558730514L193.952,88.03531554893212L194.788,90.29789465445059L195.62400000000002,84.5680374922576L196.45999999999998,84.19329862241392L197.296,83.29116076010244L198.13199999999998,87.07003176653826L198.968,83.58822854359944L199.804,82.43805210678666L200.64,90.79265682785599L201.476,88.51085323757596L202.31199999999998,83.47304835142913L203.148,84.01133600870769L203.984,82.95940971374512L204.82,87.00813205153854L205.656,88.6662099979542L206.492,86.45354369834618L207.328,84.82496830269142L208.164,81.8620219407258L209,84.52086925506592L209.836,80.50285607797129L210.672,87.61462963951959L211.508,82.8539178283126L212.344,86.39036651893898L213.18,86.26045276500558L214.016,82.62559763590495L214.852,81.89325625808151L215.68800000000002,80.37394053847702L216.524,80.03117995791965L217.36,85.03079011705186L218.196,80.43060952645762L219.032,85.42927773793538L219.86800000000002,85.89655879691796L220.704,84.65793722647207L221.54000000000002,78.88514850757743L222.376,86.53884414390282L223.21200000000002,84.65986905274568L224.048,81.84713208233869L224.88400000000001,77.44619842811866L225.72000000000003,80.13375639032432L226.556,80.38678812097618L227.39200000000002,79.19085636845341L228.228,74.65149183626528L229.06400000000002,79.75734410462556L229.9,75.63171965987594L230.73600000000002,80.3817720413208L231.57200000000003,81.43462152834292L232.40800000000002,81.44025237471969L233.24400000000003,76.98332284998008L234.08,81.65064847027814L234.91600000000003,73.09928505508988L235.75199999999998,77.6937097620081L236.58799999999997,78.0119276046753L237.42399999999998,74.99665521692344L238.26,74.99047003851996L239.09599999999998,73.71628369225397L239.932,75.82758016939516L240.76799999999997,83.06492452268247L241.60399999999998,75.60945051687735L242.43999999999997,81.99434266267L243.27599999999998,83.832161726775L244.112,83.17248994332773L244.94799999999998,79.44148946691445L245.784,79.94986195034451L246.61999999999998,80.50620290968153L247.456,80.58015830428512L248.292,80.66102826153791L249.128,85.01491663191054L249.964,83.48295338948567L250.79999999999998,87.27058117477982L251.636,85.02358796861436L252.47199999999998,86.12995550367567L253.308,82.5846333327117L254.144,78.56808725992839L254.98,82.43534921716758L255.816,76.9468557216503L256.652,75.33003383212619L257.488,74.5606584902163L258.324,80.85097867471201L259.16,78.30858484903972L259.996,78.68713527255588L260.832,76.42872199305782L261.668,73.13794242011176L262.504,77.33792863068757L263.34,72.66565570124874L264.176,75.77707968817816L265.012,78.8099260683413L265.848,68.04582966698541L266.684,68.762722686485L267.52,65.2204014107033L268.356,70.43680540720622L269.192,70.46807098388672L270.028,62.86707231733534L270.86400000000003,59.53217750125461L271.7,65.94553022031431L272.536,63.288200025205256L273.372,64.83672445791738L274.208,55.61589258688466L275.04400000000004,55.45677011984365L275.88,60.67182788142452L276.716,61.303874757554794L277.552,62.46935575979726L278.38800000000003,52.39893086751301L279.224,59.975251339100026L280.06,55.739060578522846L280.896,56.0144614820127L281.732,54.27565945519343L282.56800000000004,58.73124066105595L283.404,67.12210411495633L284.24,60.795114658497L285.076,60.816493952715824L285.91200000000003,61.938824582982946L286.74800000000005,61.834564314948175L287.584,67.8732490186338L288.41999999999996,61.79492332317209L289.256,61.55560818424931L290.092,68.19013938197384L290.928,66.5027922877559L291.76399999999995,69.87575054168701L292.59999999999997,67.14958939728913L293.436,70.5380293528239L294.272,71.0819353527493L295.108,63.61754827146177L295.94399999999996,69.78334172566731L296.78,68.4010564662792L297.616,59.92427571614582L298.452,60.14461644490559L299.288,66.99946336393003L300.12399999999997,68.72816029301396L300.96,63.489766403480814L301.796,65.30675008561876L302.632,66.75435066223145L303.468,58.88574716779921L304.304,57.708498071741175L305.14,60.72762369226525L305.976,62.774532212151435L306.812,55.77012192761457L307.64799999999997,58.29213258955214L308.484,57.935526212056466L309.32,58.78548184147587L310.156,57.63041019439697L310.992,58.65054783997712L311.828,58.53354210323758L312.664,58.46948549482558L313.5,62.975613028914836L314.336,57.62388324737549L315.172,63.68916130065918L316.008,55.6513927601002L316.844,61.79452945567942L317.68,59.23822106255427L318.516,58.387986183166504L319.35200000000003,51.721589229725026L320.188,60.17816186834266L321.024,56.585519331472874L321.86,57.02852439880371L322.696,59.38717382925527L323.532,49.52651984603317L324.368,46.87702532167788L325.204,55.734775967068146L326.04,43.13228324607568L326.87600000000003,50.41490568938079L327.712,48.27026176452637L328.548,53.503993846752024L329.384,44.7283051808675L330.22,42.73764469005442L331.05600000000004,47.4585154498065L331.892,51.4619596975821L332.728,43.13837673045969L333.564,51.44897040614376L334.40000000000003,47.148141613713L335.23600000000005,42.42088353192365L336.072,47.225495938901545L336.908,49.027191727249715L337.744,46.03825844658747L338.58000000000004,51.56378173828125L339.416,52.94941174542463L340.25199999999995,42.548734170419216L341.08799999999997,46.6282656987508L341.924,52.22269913002295L342.76,56.48718791537814L343.596,56.75070610752812L344.43199999999996,49.31776173909504L345.268,57.97679685663292L346.104,59.005395359463165L346.94,58.845266342163086L347.776,56.811578432718925L348.61199999999997,64.56403269591155L349.448,55.997735659281425L350.284,56.84502799422653L351.12,57.50844256083172L351.95599999999996,57.587193135861995L352.792,57.49374442630344L353.628,62.07507147612395L354.464,62.7157500938133L355.3,52.129577601397465L356.13599999999997,52.74577808380127L356.972,57.408689887435344L357.808,59.546756850348565L358.644,47.01127578594065L359.48,54.020785508332416L360.316,46.48564190334744L361.152,51.1447942521837L361.988,42.50758439523204L362.824,49.20232730441623L363.66,46.74394812407317L364.496,41.83103257638438L365.332,54.714363239429616L366.168,46.567566341824005L367.004,60.18234644995794L367.84,53.67379866705999L368.676,60.27458438166866L369.512,54.16492433901186L370.348,56.40953141671641L371.184,64.80629871509696L372.02,68.43264713993779L372.856,60.934929282576945L373.692,60.52335650832565L374.528,71.7146386747007L375.36400000000003,67.12601361451325L376.2,64.4621606402927L377.036,68.14698484208849L377.872,59.18033087695086L378.708,67.29157341851129L379.54400000000004,58.46856438672101L380.38,55.96134772124114L381.216,54.87853304545086L382.052,55.38800168920448L382.88800000000003,52.31275307690656L383.724,56.36141914791531L384.56,58.29601916560421L385.396,56.01770619992857L386.232,56.69497281533702L387.06800000000004,53.215678674203396L387.904,55.72481049431696L388.74,48.69658685613563L389.576,55.03525062843604L390.41200000000003,56.293701030589915L391.24800000000005,59.93430370754666L392.084,59.436761538187675L392.91999999999996,57.39850559941044L393.756,52.1400807345355L394.592,60.36864994190359L395.428,54.0931008303607L396.26399999999995,55.1587124577275L397.09999999999997,47.816743144282604L397.936,54.162060984858776L398.772,48.59754689534504L399.608,41.314501409177424L400.44399999999996,48.7809807812726L401.28,48.0528844197591L402.116,50.20279241491249L402.952,46.64785070772524L403.788,40.94261338975694L404.62399999999997,40.86693248042354L405.46,50.06336749041522L406.296,49.944369492707416L407.132,44.9050224798697L407.968,55.755934362058284L408.804,48.79839222519486L409.64,57.67109941553185L410.476,62.46059481302898L411.312,60.02265714716027L412.14799999999997,66.77222474416097L412.984,67.95815976460774L413.82,62.97108251077159L414.656,64.94108683974655L415.492,62.73994897913048L416.328,69.69497578232377L417.164,69.31097164860478" stroke="rgb(232, 123, 159)" stroke-width="2" stroke-dasharray="4,2"/></g></g><path class="foreground" aria-hidden="true" d="" display="none"/></g></g><g class="mark-group role-legend" role="graphics-symbol" aria-roledescription="legend" aria-label="Symbol legend titled 'name' for stroke color with 1 value: overfit run (11 examples)"><g transform="translate(436,0)"><path class="background" aria-hidden="true" d="M0,0h126v27h-126Z" pointer-events="none"/><g><g class="mark-group role-legend-entry"><g transform="translate(0,16)"><path class="background" aria-hidden="true" d="M0,0h0v0h0Z" pointer-events="none"/><g><g class="mark-group role-scope" role="graphics-object" aria-roledescription="group mark container"><g transform="translate(0,0)"><path class="background" aria-hidden="true" d="M0,0h125.8583984375v11h-125.8583984375Z" pointer-events="none" opacity="1"/><g><g class="mark-symbol role-legend-symbol" pointer-events="none"><path transform="translate(6,6)" d="M-5,0L5,0" stroke="rgb(232, 123, 159)" stroke-width="1.5" opacity="1"/></g><g class="mark-text role-legend-label" pointer-events="none"><text text-anchor="start" transform="translate(16,9)" font-family="sans-serif" font-size="10px" fill="#000" opacity="1">overfit run (11 examples)</text></g></g><path class="foreground" aria-hidden="true" d="" pointer-events="none" display="none"/></g></g></g><path class="foreground" aria-hidden="true" d="" pointer-events="none" display="none"/></g></g><g class="mark-text role-legend-title" pointer-events="none"><text text-anchor="start" transform="translate(0,9)" font-family="sans-serif" font-size="11px" font-weight="bold" fill="#000" opacity="1">name</text></g></g><path class="foreground" aria-hidden="true" d="" pointer-events="none" display="none"/></g></g><g class="mark-group role-legend" role="graphics-symbol" aria-roledescription="legend" aria-label="Symbol legend titled 'lineKey' for strokeDash with 2 values: train_loss_avg, valid_loss_avg"><g transform="translate(436,35)"><path class="background" aria-hidden="true" d="M0,0h82v40h-82Z" pointer-events="none"/><g><g class="mark-group role-legend-entry"><g transform="translate(0,16)"><path class="background" aria-hidden="true" d="M0,0h0v0h0Z" pointer-events="none"/><g><g class="mark-group role-scope" role="graphics-object" aria-roledescription="group mark container"><g transform="translate(0,0)"><path class="background" aria-hidden="true" d="M0,0h81.595703125v11h-81.595703125Z" pointer-events="none" opacity="1"/><g><g class="mark-symbol role-legend-symbol" pointer-events="none"><path transform="translate(6,6)" d="M-5,0L5,0" stroke="#888" stroke-width="1.5" stroke-dasharray="1,0" opacity="1"/></g><g class="mark-text role-legend-label" pointer-events="none"><text text-anchor="start" transform="translate(16,9)" font-family="sans-serif" font-size="10px" fill="#000" opacity="1">train_loss_avg</text></g></g><path class="foreground" aria-hidden="true" d="" pointer-events="none" display="none"/></g><g transform="translate(0,13)"><path class="background" aria-hidden="true" d="M0,0h81.595703125v11h-81.595703125Z" pointer-events="none" opacity="1"/><g><g class="mark-symbol role-legend-symbol" pointer-events="none"><path transform="translate(6,6)" d="M-5,0L5,0" stroke="#888" stroke-width="1.5" stroke-dasharray="4,2" opacity="1"/></g><g class="mark-text role-legend-label" pointer-events="none"><text text-anchor="start" transform="translate(16,9)" font-family="sans-serif" font-size="10px" fill="#000" opacity="1">valid_loss_avg</text></g></g><path class="foreground" aria-hidden="true" d="" pointer-events="none" display="none"/></g></g></g><path class="foreground" aria-hidden="true" d="" pointer-events="none" display="none"/></g></g><g class="mark-text role-legend-title" pointer-events="none"><text text-anchor="start" transform="translate(0,9)" font-family="sans-serif" font-size="11px" font-weight="bold" fill="#000" opacity="1">lineKey</text></g></g><path class="foreground" aria-hidden="true" d="" pointer-events="none" display="none"/></g></g><g class="mark-group role-title"><g transform="translate(209,-17)"><path class="background" aria-hidden="true" d="M0,0h0v0h0Z" pointer-events="none"/><g><g class="mark-text role-title-text" role="graphics-symbol" aria-roledescription="title" aria-label="Title text 'Loss per Epoch'" pointer-events="none"><text text-anchor="middle" transform="translate(0,10)" font-family="sans-serif" font-size="13px" font-weight="bold" fill="#000" opacity="1">Loss per Epoch</text></g></g><path class="foreground" aria-hidden="true" d="" pointer-events="none" display="none"/></g></g></g><path class="foreground" aria-hidden="true" d="" display="none"/></g></g></g><defs><clipPath id="clip5"><rect x="0" y="0" width="418" height="236"/></clipPath><clipPath id="clip6"><rect x="0" y="0" width="418" height="236"/></clipPath></defs></svg>